<?xml version="1.0" standalone="no"?>
<!DOCTYPE svg PUBLIC "-//W3C//DTD SVG 1.1//EN" "http://www.w3.org/Graphics/SVG/1.1/DTD/svg11.dtd" >
<svg xmlns="http://www.w3.org/2000/svg" xmlns:svg="http://www.w3.org/2000/svg" xmlns:xlink="http://www.w3.org/1999/xlink" viewBox="0 0 1024 1024"><path d="M258.29 342.61Q240.19 353.2 316.33 274.32Q394.58 310.43 524.8 318.97Q484.36 254.98 572.03 262.16Q533.05 364.42 534.41 281.6Q492.08 281.01 472.18 192.91Q479.53 180 564.65 200.82Q498.93 203.19 528.86 144.71Q553.13 104.55 597.03 126.24Q545.45 102.48 590.47 99.87Q595.25 193.98 640.57 180.63Q557.93 209.05 614.1 227.21V327.96H798.79Q748.07 342.01 898.9 340.49Q862.91 259.95 955.03 325.02Q950.26 268.26 987.65 355.07Q999.46 355.21 900.36 283.71Q931.49 376.01 907.89 343.77Q951.67 376.9 993.72 389.14Q964.93 341.43 860.47 374.76Q926.04 397.35 760.35 440.25H508.36L602.34 464.32V547.57L556.32 485.99Q634.54 532.04 696.47 575.78Q759.57 541.52 750.37 576.86Q772.47 557.89 795.5 464.99Q833.25 552.43 864.18 579.94Q829.64 570.24 929.12 513.55Q863.2 579.01 914.01 511.77Q863.04 564.46 889.15 555.59Q836.16 644.21 860.71 681.36Q777.71 779.67 813.45 891.06Q765.8 1035.39 750.33 1022.97Q776.35 1055.77 711.72 975.95Q771.12 1011.16 691.29 989.9Q654.33 932.95 666.46 958.09Q568.85 980.51 638.6 958.86Q640.57 918.45 612.89 845.18Q612.87 947.23 639.34 902.97Q591.79 847.76 621.08 813.63Q693.01 839.67 653.09 906.99Q677.95 823.48 650.3 848.97L684.61 874.99L740.01 848.39Q758.65 829.03 680 815.14Q692.73 807.88 781.99 829.88Q774.42 842.96 829.84 729.45Q825.46 592.57 819.94 606.18Q838.06 644.68 788.34 623.99Q715.94 619.28 604.83 573.54L489.72 601.97L494.85 537.46Q573.27 571.24 459.09 631.21Q467.21 668.83 476.29 725.23Q395.48 798.38 418.24 884.33Q370.04 886.6 235.03 1017.72Q246.52 1020.77 290.89 968.52Q294.05 1006.23 301.4 936.34Q228.29 960.48 221.4 998.77Q243.49 996.55 222.1 991.36Q220.85 1007.69 283.53 944.75Q253.24 937.92 295.37 904.8Q285.26 915.68 258.78 894.83Q359.69 783.19 348.56 814.32Q328.72 763.44 340.19 653.05Q429.6 627.97 510.28 503.67Q534.76 436.41 529.53 413.84Q492.07 348.89 495.95 373.08Q524.29 452.53 424.2 338.96Q420.61 372.45 456.78 414.82Q357.44 408.86 343.03 378.7Q319.35 393.91 263.36 455.64Q244.96 451.55 231.75 384.47Q190.75 406.17 242.26 333.34Q195.73 417.67 142.27 413.62Q225.56 338.85 162.81 370.6Z" fill="black"></path></svg>