<?xml version="1.0" standalone="no"?>
<!DOCTYPE svg PUBLIC "-//W3C//DTD SVG 1.1//EN" "http://www.w3.org/Graphics/SVG/1.1/DTD/svg11.dtd" >
<svg xmlns="http://www.w3.org/2000/svg" xmlns:svg="http://www.w3.org/2000/svg" xmlns:xlink="http://www.w3.org/1999/xlink" viewBox="0 0 1024 1024"><path d="M162.0 268.5Q194.0 259.5 307.0 253.5Q367.0 250.5 410.0 247.5Q453.0 244.5 458.0 244.5Q466.0 244.5 468.5 233.0Q471.0 221.5 471.0 179.5Q470.0 167.5 470.0 157.5Q470.0 129.5 475.0 113.5Q480.0 97.5 496.0 93.5Q505.0 89.5 512.0 89.5Q525.0 89.5 535.0 107.0Q545.0 124.5 545.0 183.5V244.5H707.0Q748.0 243.5 778.0 243.5Q822.0 243.5 849.0 246.0Q876.0 248.5 880.0 255.5Q890.0 264.5 890.5 274.0Q891.0 283.5 891.0 284.5Q891.0 299.5 883.0 313.5Q881.0 320.5 847.0 323.0Q813.0 325.5 682.0 325.5H489.0L487.0 386.5V448.5L541.0 453.5Q566.0 453.5 608.5 455.5Q651.0 457.5 692.0 457.5Q754.0 457.5 774.5 460.0Q795.0 462.5 800.0 471.5Q811.0 481.5 811.0 497.5Q811.0 499.5 811.0 502.5Q809.0 511.5 804.0 543.5Q799.0 575.5 791.0 617.5Q766.0 768.5 745.5 841.5Q725.0 914.5 700.0 928.5Q690.0 934.5 677.0 934.5Q668.0 934.5 649.5 929.0Q631.0 923.5 597.0 894.5Q566.0 869.5 560.5 858.0Q555.0 846.5 555.0 840.5Q555.0 830.5 565.0 820.5Q576.0 807.5 592.0 807.5Q594.0 807.5 604.5 808.5Q615.0 809.5 635.0 827.5L658.0 847.5L665.0 829.5Q667.0 820.5 670.5 811.5Q674.0 802.5 678.0 795.5Q687.0 761.5 706.0 656.0Q725.0 550.5 725.0 534.5Q721.0 532.5 683.5 530.0Q646.0 527.5 592.0 525.5L464.0 520.5L458.0 536.5Q455.0 543.5 445.0 568.0Q435.0 592.5 422.0 622.5Q381.0 719.5 329.5 794.5Q278.0 869.5 233.0 899.5Q219.0 907.5 214.0 908.5Q209.0 909.5 207.0 909.5Q201.0 909.5 194.0 905.5Q188.0 901.5 183.5 898.0Q179.0 894.5 179.0 892.5Q179.0 891.5 179.0 891.5Q179.0 866.5 226.0 809.5Q259.0 770.5 288.5 720.0Q318.0 669.5 336.0 628.5Q372.0 541.5 392.0 461.5Q412.0 381.5 412.0 348.5Q412.0 338.5 410.0 332.5Q410.0 332.5 410.0 331.5Q410.0 325.5 382.0 325.5Q354.0 325.5 237.0 334.5Q209.0 337.5 189.0 337.5Q165.0 337.5 149.0 331.5Q133.0 325.5 133.0 302.5Q133.0 299.5 133.0 297.5Q133.0 276.5 162.0 268.5Z" fill="black"></path></svg>